<?xml version="1.0" standalone="no"?>
<!DOCTYPE svg PUBLIC "-//W3C//DTD SVG 20010904//EN"
 "http://www.w3.org/TR/2001/REC-SVG-20010904/DTD/svg10.dtd">
<svg version="1.0" xmlns="http://www.w3.org/2000/svg"
 width="500.000000pt" height="500.000000pt" viewBox="0 0 500.000000 500.000000"
 preserveAspectRatio="xMidYMid meet">
<metadata>
Created by potrace 1.11, written by Peter Selinger 2001-2013
</metadata>
<g transform="translate(0.000000,500.000000) scale(0.100000,-0.100000)"
fill="#000000" stroke="none">
<path d="M0 2500 l0 -2500 2500 0 2500 0 0 2500 0 2500 -2500 0 -2500 0 0
-2500z m2070 1340 c346 -29 562 -185 642 -465 31 -110 31 -332 0 -446 -34
-125 -84 -214 -171 -299 -91 -91 -180 -140 -319 -177 -96 -26 -100 -27 -534
-31 l-438 -4 0 -459 c0 -392 -2 -464 -15 -489 -39 -76 -177 -88 -237 -20 l-28
30 0 1068 c0 1178 -2 1135 62 1208 40 45 94 73 166 83 80 12 733 13 872 1z
m1413 -779 c31 -12 42 -53 25 -89 -12 -24 -20 -28 -81 -34 -83 -8 -113 -26
-126 -75 -6 -21 -11 -137 -11 -261 0 -260 -7 -300 -58 -342 -35 -29 -36 -30
-17 -45 11 -8 22 -15 25 -15 3 0 15 -15 25 -32 18 -30 20 -58 25 -303 6 -288
8 -302 57 -324 13 -6 43 -11 66 -12 69 -2 91 -12 101 -47 7 -24 5 -37 -8 -57
-16 -24 -21 -25 -105 -25 -78 0 -95 3 -142 28 -40 21 -61 40 -79 72 -25 44
-25 50 -30 315 -4 197 -9 277 -19 297 -8 16 -32 34 -61 46 -36 15 -48 26 -52
46 -10 52 2 77 48 96 77 34 78 38 84 345 5 256 6 272 28 312 39 73 114 108
239 112 23 0 53 -3 66 -8z m466 -17 c20 -8 48 -27 63 -41 50 -48 57 -86 61
-364 3 -231 6 -260 23 -289 12 -20 32 -38 53 -45 38 -13 61 -39 61 -71 0 -40
-12 -56 -56 -74 -73 -32 -77 -46 -81 -340 -5 -285 -11 -318 -68 -369 -44 -38
-91 -51 -190 -51 -92 0 -105 7 -105 61 0 49 16 60 101 69 118 13 113 1 119
318 7 294 11 320 69 363 l31 22 -31 19 c-57 35 -62 65 -69 359 -6 291 -5 290
-67 316 -18 7 -54 13 -81 13 -58 0 -72 12 -72 61 0 59 26 72 124 64 43 -3 95
-12 115 -21z"/>
<path d="M1299 3575 c-15 -8 -32 -29 -38 -46 -7 -21 -11 -168 -11 -440 l0
-409 400 0 c253 0 418 4 452 11 216 45 338 211 338 458 0 73 -21 175 -46 223
-26 49 -105 128 -154 153 -113 57 -125 59 -535 62 -321 3 -384 1 -406 -12z"/>
</g>
</svg>
